<!DOCTYPE svg PUBLIC "-//W3C//DTD SVG 1.1//EN" "http://www.w3.org/Graphics/SVG/1.1/DTD/svg11.dtd">
<!-- Uploaded to: SVG Repo, www.svgrepo.com, Transformed by: SVG Repo Mixer Tools -->
<svg fill="#ffffff" version="1.1" id="Capa_1" xmlns="http://www.w3.org/2000/svg" xmlns:xlink="http://www.w3.org/1999/xlink" width="800px" height="800px" viewBox="0 0 494.67 494.67" xml:space="preserve" stroke="#ffffff">
<g id="SVGRepo_bgCarrier" stroke-width="0"/>
<g id="SVGRepo_tracerCarrier" stroke-linecap="round" stroke-linejoin="round"/>
<g id="SVGRepo_iconCarrier"> <g> <path d="M421.62,116.048h-56.939v-3.735C364.681,50.383,314.298,0,252.368,0h-9.45c-61.93,0-112.313,50.384-112.313,112.313v3.735 H73.048c-8.297,0-15.026,6.727-15.026,15.025v348.572c0,8.299,6.729,15.025,15.026,15.025H421.62 c8.301,0,15.027-6.728,15.027-15.025V131.073C436.647,122.774,429.921,116.048,421.62,116.048z M166.072,112.313 c0-42.372,34.473-76.846,76.846-76.846h9.45c42.373,0,76.695,34.474,76.695,76.846l-0.021,36.722 c0,9.792-7.838,17.729-17.629,17.729c-9.793,0-17.729-7.938-17.729-17.729c0-0.041,0.008-0.082,0.008-0.123l-0.019-32.863h-92.147 v32.863h-0.006c0,0.041,0.006,0.082,0.006,0.123c0,9.792-7.938,17.729-17.729,17.729c-9.792,0-17.729-7.938-17.729-17.729 L166.072,112.313z M343.763,305.205l-42.119,41.056l9.943,57.973c0.539,3.151-0.756,6.338-3.342,8.218 c-1.467,1.063-3.197,1.604-4.939,1.604c-1.338,0-2.682-0.319-3.908-0.965l-52.063-27.371l-52.062,27.371 c-2.833,1.487-6.262,1.24-8.848-0.641c-2.589-1.88-3.884-5.065-3.343-8.218l9.944-57.973l-42.12-41.056 c-2.291-2.231-3.114-5.57-2.125-8.612c0.986-3.041,3.615-5.258,6.78-5.718l58.206-8.457l26.031-52.744 c1.416-2.868,4.336-4.685,7.535-4.685c3.197,0,6.12,1.816,7.536,4.685l26.027,52.744l58.211,8.457 c3.16,0.46,5.791,2.677,6.777,5.718C346.878,299.635,346.052,302.975,343.763,305.205z"/> </g> </g>
</svg>