<svg width="48" height="46" viewBox="0 0 48 46" fill="none" xmlns="http://www.w3.org/2000/svg">
<path d="M36.1569 16.8269C34.403 16.8269 32.9761 18.2538 32.9761 20.0077C32.9761 21.7616 34.403 23.1885 36.1569 23.1885C37.9108 23.1885 39.3377 21.7616 39.3377 20.0077C39.3377 18.2538 37.9108 16.8269 36.1569 16.8269ZM36.1569 20.9485C35.6384 20.9485 35.2161 20.5263 35.2161 20.0077C35.2161 19.4891 35.6378 19.0669 36.1569 19.0669C36.676 19.0669 37.0977 19.4891 37.0977 20.0077C37.0977 20.5263 36.6755 20.9485 36.1569 20.9485ZM23.52 16.8269C21.766 16.8269 20.3392 18.2538 20.3392 20.0077C20.3392 21.7616 21.766 23.1885 23.52 23.1885C25.2739 23.1885 26.7008 21.7616 26.7008 20.0077C26.7008 18.2538 25.2739 16.8269 23.52 16.8269ZM23.52 20.9485C23.0014 20.9485 22.5792 20.5263 22.5792 20.0077C22.5792 19.4891 23.0008 19.0669 23.52 19.0669C24.0391 19.0669 24.4608 19.4891 24.4608 20.0077C24.4608 20.5263 24.0385 20.9485 23.52 20.9485ZM10.883 16.8269C9.12909 16.8269 7.70221 18.2538 7.70221 20.0077C7.70221 21.7616 9.12909 23.1885 10.883 23.1885C12.6369 23.1885 14.0638 21.7616 14.0638 20.0077C14.0638 18.2538 12.6369 16.8269 10.883 16.8269ZM10.883 20.9485C10.3644 20.9485 9.94221 20.5263 9.94221 20.0077C9.94221 19.4891 10.3639 19.0669 10.883 19.0669C11.4021 19.0669 11.8238 19.4891 11.8238 20.0077C11.8238 20.5263 11.4016 20.9485 10.883 20.9485Z" fill="white"/>
<path d="M23.52 0C10.551 0 0 8.97512 0 20.0077C0 25.9857 3.05368 31.5257 8.41288 35.3416L4.6928 43.9516C4.60557 44.1537 4.57983 44.377 4.61879 44.5936C4.65775 44.8103 4.75969 45.0107 4.91186 45.1697C5.06403 45.3287 5.2597 45.4394 5.47441 45.4879C5.68913 45.5364 5.91337 45.5205 6.11912 45.4423L20.7603 39.8731C21.7034 39.9677 22.6301 40.0153 23.52 40.0153C36.489 40.0153 47.04 31.0402 47.04 20.0077C47.04 8.97512 36.489 0 23.52 0ZM23.52 37.7748C22.6195 37.7748 21.6754 37.721 20.7127 37.6152C20.4925 37.5919 20.2704 37.6344 20.0743 37.7373L7.80024 42.406L10.7727 35.5269C10.9244 35.2784 10.9733 34.9806 10.9093 34.6967C10.8452 34.4127 10.6731 34.1648 10.4294 34.0054C5.2248 30.6057 2.24 25.5029 2.24 20.0077C2.24 10.211 11.7863 2.24 23.52 2.24C35.2537 2.24 44.8 10.2105 44.8 20.0077C44.8 29.8049 35.2537 37.7748 23.52 37.7748Z" fill="white"/>
</svg>
