<svg width="22" height="21" viewBox="0 0 22 21" fill="none" xmlns="http://www.w3.org/2000/svg">
<path d="M13.4515 11.3167L18.6565 8.53665L19.4691 3.6968L13.4515 1.4381L11.0087 3.72704C12.2729 4.15983 13.1707 5.0238 13.2787 6.03177C13.4141 7.29967 12.2866 8.48011 10.5356 8.90193C8.20888 9.46328 6.64522 10.9776 6.64522 12.6706V13.3979C6.64522 14.3453 7.77159 15.1133 9.16041 15.1133H12.8396L13.4515 11.3167ZM6.1945 7.96128H2.51554C1.12625 7.96128 0 7.19338 0 6.24614C0 5.95576 0.0297084 5.66342 0.0882564 5.37723C0.747341 2.15665 5.00113 -0.19969 9.77242 0.013844H13.452L10.8343 1.81597M12.8397 16.7719H9.16064C7.77136 16.7719 6.64511 17.5398 6.64511 18.4871V18.5013C6.64511 19.4485 7.77136 20.2164 9.16064 20.2164H12.3922" fill="#5C0089"/>
<path d="M12.8403 15.1128C11.451 15.1128 10.3247 14.3449 10.3247 13.3977V12.6702C10.3247 10.9772 11.8883 9.4629 14.2155 8.9019C15.966 8.47988 17.0939 7.29956 16.9584 6.03162C16.8099 4.64322 15.1612 3.52761 13.1234 3.43664C10.9679 3.33954 9.04751 4.40094 8.75072 5.85106C8.72408 5.9819 8.71073 6.11385 8.71076 6.24595C8.71076 7.19319 7.58451 7.96109 6.19522 7.96109C4.80594 7.96109 3.67969 7.19319 3.67969 6.24595C3.67969 5.95558 3.7094 5.66323 3.76794 5.37704C4.42703 2.15642 8.68076 -0.199919 13.4521 0.0136151C17.9817 0.215857 21.6463 2.69582 21.9762 5.7822C22.2761 8.58736 19.7745 11.2001 15.8926 12.136C15.5716 12.2134 15.3559 12.4281 15.3559 12.6702V13.3977C15.3559 14.3449 14.2296 15.1128 12.8403 15.1128ZM12.8403 20.2162C11.451 20.2162 10.3247 19.4483 10.3247 18.5011V18.4869C10.3247 17.5396 11.451 16.7717 12.8403 16.7717C14.2296 16.7717 15.3558 17.5396 15.3558 18.4869V18.5011C15.3559 19.4483 14.2296 20.2162 12.8403 20.2162Z" fill="#AD03FF"/>
<path d="M5.99069 5.37719C5.93179 5.66502 5.9024 5.95529 5.90272 6.2459C5.90272 6.92097 6.47442 7.50523 7.3062 7.78455C6.96045 7.90107 6.57986 7.96148 6.19419 7.96104C4.80577 7.96104 3.67871 7.19346 3.67871 6.24594C3.67871 5.95553 3.70888 5.66338 3.76789 5.37723C4.42634 2.15602 8.68083 -0.199927 13.4517 0.0134101C13.6226 0.0211097 13.7922 0.0322444 13.9606 0.0468143C9.92099 0.386068 6.56992 2.54838 5.99069 5.37719ZM16.4384 8.90165C14.1114 9.46277 12.5471 10.9775 12.5471 12.6703V13.3976C12.5471 14.0727 13.1201 14.657 13.9518 14.9363C13.6061 15.0528 13.2255 15.1132 12.8398 15.1128C11.4501 15.1128 10.3243 14.3452 10.3243 13.3977V12.6703C10.3243 10.9775 11.8874 9.46281 14.2157 8.90165C15.966 8.47928 17.093 7.29963 16.9573 6.03169C16.8305 4.83917 15.5966 3.84794 13.9594 3.53526C14.4101 3.44878 14.8793 3.41546 15.3465 3.43675C17.3846 3.52756 19.033 4.64297 19.1813 6.03169C19.317 7.29963 18.1886 8.47932 16.4384 8.90165ZM13.9518 20.0396C13.606 20.1561 13.2254 20.2166 12.8398 20.2161C11.4501 20.2161 10.3243 19.4485 10.3243 18.501V18.4864C10.3243 17.5398 11.4501 16.7713 12.8398 16.7713C13.2393 16.7713 13.6163 16.8348 13.9518 16.9478C13.12 17.228 12.547 17.8122 12.547 18.4865V18.5011C12.547 19.1761 13.12 19.7603 13.9518 20.0396Z" fill="#8D00D1"/>
</svg>
