<svg width="33" height="38" viewBox="0 0 33 38" fill="none" xmlns="http://www.w3.org/2000/svg">
<path d="M32.5763 10.1513L16.9985 0.146151C16.8499 0.0506903 16.677 -6.10352e-05 16.5004 -6.10352e-05C16.3238 -6.10352e-05 16.1509 0.0506903 16.0023 0.146151L0.423843 10.1472C0.293806 10.2307 0.186841 10.3455 0.11278 10.4811C0.0387184 10.6168 -6.30636e-05 10.7688 7.69766e-08 10.9234L0.00377948 27.5193C0.00385386 27.6768 0.0442801 27.8317 0.121204 27.9692C0.198127 28.1067 0.308983 28.2221 0.443201 28.3046L16.018 37.8682C16.1631 37.9574 16.3301 38.0046 16.5004 38.0046C16.6707 38.0047 16.8376 37.9575 16.9827 37.8682L32.5585 28.3084C32.6927 28.2259 32.8036 28.1105 32.8805 27.973C32.9574 27.8355 32.9978 27.6806 32.9979 27.5231L33 10.9271C33 10.7727 32.9612 10.6207 32.8872 10.4851C32.8132 10.3496 32.7063 10.2348 32.5763 10.1513ZM16.5003 2.36225L22.2095 6.01524L16.5003 9.66805L10.7912 6.01524L16.5003 2.36225ZM2.12484 26.8477V20.9539L7.71941 24.3505L7.72034 30.2848L2.12484 26.8477ZM7.72034 21.904L2.12474 18.4671V12.4994L7.72034 16.0798V21.904ZM3.32529 10.7697L8.78105 7.27893L14.2368 10.7697L8.78105 14.2604L3.32529 10.7697ZM9.8413 16.0798L15.4371 12.4992V18.4671L9.8413 21.904V16.0798ZM9.84407 25.6192L13.5633 27.9988L9.84407 30.2833V25.6192ZM15.4397 35.0238L10.8094 32.1797L15.4397 29.3363V35.0238ZM16.4994 27.381L10.7773 23.8077L16.4994 20.2503L22.2216 23.8207L16.4994 27.381ZM17.5609 35.0238V29.3414L22.1878 32.1817L17.5609 35.0238ZM23.1567 30.2876L19.4337 28.001L23.1567 25.6189V30.2876ZM23.1594 21.9083L17.5638 18.4712V12.5039L23.1594 16.0843V21.9083ZM18.7643 10.7738L24.2201 7.28326L29.6758 10.7738L24.2201 14.2646L18.7643 10.7738ZM30.8764 26.8519L25.2806 30.2889V24.4659L30.8764 20.9647V26.8519ZM30.8764 18.4712L25.2806 21.9083V16.0842L30.8764 12.5036V18.4712Z" fill="#5C0089" fill-opacity="0.8"/>
</svg>
